HIERARCHY
ROOT hip
{
	OFFSET 0.000000 0.000000 0.000000 
	CHANNELS 6 Xposition Yposition Zposition Xrotation Zrotation Yrotation
	JOINT abdomen
	{
		OFFSET 0.000000 3.402643 0.000000 
		CHANNELS 3 Xrotation Zrotation Yrotation
		JOINT chest
		{
			OFFSET 0.000000 8.438565 -0.680529 
			CHANNELS 3 Xrotation Zrotation Yrotation
			JOINT neck
			{
				OFFSET 0.000000 10.207942 -0.272212 
				CHANNELS 3 Xrotation Zrotation Yrotation
				JOINT head
				{
					OFFSET 0.000000 3.130431 0.000000 
					CHANNELS 3 Xrotation Zrotation Yrotation
					End Site
					{
						OFFSET 0.000000 3.130435 0.000000 
					}
				}
			}
			JOINT lCollar
			{
				OFFSET 3.470700 6.669187 -0.816635 
				CHANNELS 3 Yrotation Zrotation Xrotation
				JOINT lShldr
				{
					OFFSET 3.198488 0.000000 0.000000 
					CHANNELS 3 Zrotation Yrotation Xrotation
					JOINT lForeArm
					{
						OFFSET 10.139888 0.000000 0.000000 
						CHANNELS 3 Yrotation Zrotation Xrotation
						JOINT lHand
						{
							OFFSET 8.370511 0.000000 0.000000 
							CHANNELS 3 Zrotation Yrotation Xrotation
							End Site
							{
								OFFSET 4.083176 0.000000 0.000000 
							}
						}
					}
				}
			}
			JOINT rCollar
			{
				OFFSET -3.470700 6.669187 -0.816635 
				CHANNELS 3 Yrotation Zrotation Xrotation
				JOINT rShldr
				{
					OFFSET -3.198488 0.000000 0.000000 
					CHANNELS 3 Zrotation Yrotation Xrotation
					JOINT rForeArm
					{
						OFFSET -10.139888 0.000000 0.000000 
						CHANNELS 3 Yrotation Zrotation Xrotation
						JOINT rHand
						{
							OFFSET -8.370511 0.000000 0.000000 
							CHANNELS 3 Zrotation Yrotation Xrotation
							End Site
							{
								OFFSET -4.083176 0.000000 0.000000 
							}
						}
					}
				}
			}
		}
	}
	JOINT lThigh
	{
		OFFSET 5.308129 -1.633274 1.361059 
		CHANNELS 3 Xrotation Zrotation Yrotation
		JOINT lShin
		{
			OFFSET -2.041588 -20.007561 0.000000 
			CHANNELS 3 Xrotation Zrotation Yrotation
			JOINT lFoot
			{
				OFFSET 0.000000 -19.190928 -1.224953 
				CHANNELS 3 Xrotation Yrotation Zrotation
				End Site
				{
					OFFSET 0.000000 -2.449906 4.627600 
				}
			}
		}
	}
	JOINT rThigh
	{
		OFFSET -5.308129 -1.633274 1.361059 
		CHANNELS 3 Xrotation Zrotation Yrotation
		JOINT rShin
		{
			OFFSET 2.041588 -20.007561 0.000000 
			CHANNELS 3 Xrotation Zrotation Yrotation
			JOINT rFoot
			{
				OFFSET 0.000000 -19.190928 -1.224953 
				CHANNELS 3 Xrotation Yrotation Zrotation
				End Site
				{
					OFFSET 0.000000 -2.449906 4.627600 
				}
			}
		}
	}
}
MOTION
Frames: 8
Frame Time: 0.016667
-1.074543 44.274471 -0.121451 9.323380 -2.206820 3.143540 -21.944000 1.931100 -1.746050 17.552700 3.598580 -0.578972 11.127766 -18.046728 -14.671163 11.169000 10.539500 -8.450000 2.000000 -2.000000 0.000000 -90.141197 -2.440780 -144.828995 65.459503 -0.271633 0.124418 -179.899002 -179.878006 -6.492000 -2.000000 2.000000 0.000000 85.769897 4.593000 -156.074005 -45.537601 0.310611 0.097580 -0.058895 0.037710 -150.514999 -17.764040 0.700832 -0.812385 26.305504 2.452222 2.131442 -7.615172 15.001421 3.081902 -19.992481 2.725848 3.047337 31.727365 -2.270492 -2.549888 -18.509058 -12.057997 -5.274774 
-1.082936 44.274471 -0.101490 9.342990 -2.216330 3.141210 -21.954100 1.954690 -1.766530 17.572100 3.637650 -0.579772 11.177055 -18.049747 -14.609476 11.198300 10.519400 -8.447040 2.000000 -2.000000 0.000000 -90.170601 -2.362920 -144.966003 65.459503 -0.271633 0.124418 -179.899002 -179.878006 -6.521290 -2.000000 2.000000 0.000000 85.848198 4.583510 -156.201004 -45.361801 0.310910 0.097286 -0.058863 0.037577 -150.466995 -17.764805 0.719890 -0.833558 26.294975 2.456129 2.122757 -7.607547 15.018848 3.080219 -20.006504 2.751747 3.014163 31.716766 -2.271152 -2.530843 -18.495577 -12.064236 -5.264223 
-1.091145 44.274471 -0.081446 9.362600 -2.225840 3.148630 -21.973900 1.972490 -1.774610 17.591600 3.666970 -0.580042 11.190461 -18.052250 -14.557059 11.197800 10.500000 -8.459200 2.000000 -2.000000 0.000000 -90.200104 -2.275280 -145.093002 65.469299 -0.271612 0.124428 -179.899002 -179.867996 -6.540810 -2.000000 2.000000 0.000000 85.916603 4.583720 -156.298004 -45.225101 0.311142 0.097057 -0.058850 0.037524 -150.447006 -17.716568 0.745640 -0.858624 26.217796 2.441729 2.121007 -7.583793 15.022977 3.098677 -19.983181 2.767770 2.995017 31.686958 -2.272138 -2.521984 -18.501657 -12.068420 -5.279358 
-1.099789 44.274471 -0.061180 9.362660 -2.235470 3.166570 -21.983900 1.990440 -1.782300 17.601299 3.696260 -0.580921 11.243530 -18.044790 -14.517232 11.207500 10.490100 -8.468390 2.000000 -2.000000 0.000000 -90.229500 -2.158300 -145.201004 65.508301 -0.271527 0.124467 -179.899002 -179.878006 -6.521290 -2.000000 2.000000 0.000000 85.965500 4.574060 -156.347000 -45.156700 0.311257 0.096942 -0.058856 0.037550 -150.457001 -17.754475 0.754714 -0.847238 26.303572 2.465491 2.115013 -7.641924 15.040083 3.104468 -19.980198 2.788083 2.993421 31.696609 -2.274263 -2.522361 -18.541603 -12.074859 -5.299435 
-1.108592 44.273830 -0.040430 9.372560 -2.254680 3.192310 -21.993900 2.002760 -1.777210 17.620800 3.715830 -0.580658 11.312734 -18.036333 -14.495950 11.226800 10.470200 -8.467240 2.000000 -2.000000 0.000000 -90.229698 -2.031560 -145.309006 65.625504 -0.271272 0.124582 -179.899002 -179.878006 -6.443170 -2.000000 2.000000 0.000000 86.024101 4.564360 -156.376999 -45.127399 0.311307 0.096892 -0.058844 0.037497 -150.436996 -17.745335 0.776394 -0.869308 26.305315 2.454433 2.131929 -7.650620 15.029215 3.090288 -19.956669 2.809650 2.983357 31.688496 -2.266433 -2.549442 -18.547588 -12.070323 -5.287291 
-1.116669 44.273315 -0.018695 9.382450 -2.273890 3.247330 -22.003901 2.009460 -1.759310 17.650101 3.715930 -0.568994 11.396836 -18.046772 -14.477114 11.266100 10.449900 -8.482090 2.000000 -2.000000 0.000000 -90.210197 -1.963280 -145.348007 65.713402 -0.271081 0.124669 -179.899002 -179.878006 -6.413870 -2.000000 2.000000 0.000000 86.082703 4.574170 -156.395996 -45.117599 0.311324 0.096876 -0.058831 0.037444 -150.417999 -17.744305 0.801944 -0.871777 26.323269 2.464448 2.114434 -7.680041 15.015177 3.088020 -19.941454 2.832583 2.952980 31.717001 -2.273492 -2.541176 -18.599897 -12.092663 -5.317729 
-1.122896 44.272415 0.003510 9.382650 -2.302790 3.310920 -22.013700 2.007100 -1.737760 17.669701 3.706240 -0.557473 11.487293 -18.056223 -14.476825 11.305500 10.439200 -8.485980 2.000000 -2.000000 0.000000 -90.180801 -1.963140 -145.279007 65.684097 -0.271145 0.124640 -179.899002 -179.878006 -6.472470 -2.000000 2.000000 0.000000 86.131599 4.564470 -156.425003 -45.137199 0.311291 0.096909 -0.058818 0.037391 -150.397995 -17.687727 0.826389 -0.916662 26.227156 2.446848 2.121960 -7.640429 14.982295 3.099256 -19.906431 2.843172 2.897237 31.697119 -2.272326 -2.531528 -18.613171 -12.127860 -5.328230 
-1.128066 44.271259 0.025946 9.392550 -2.322000 3.385470 -22.023800 2.017220 -1.710730 17.699200 3.686830 -0.544844 11.541254 -18.075125 -14.476244 11.325100 10.429000 -8.503200 2.000000 -2.000000 0.000000 -90.131798 -2.011760 -145.171997 65.635300 -0.271251 0.124592 -179.899002 -179.867996 -6.550570 -2.000000 2.000000 0.000000 86.180397 4.554720 -156.434998 -45.205502 0.311175 0.097024 -0.058837 0.037471 -150.427994 -17.738445 0.831508 -0.942887 26.333323 2.461591 2.113556 -7.709801 14.955791 3.107436 -19.880516 2.858625 2.840143 31.677921 -2.266457 -2.530336 -18.614126 -12.159786 -5.348892 
